<svg xmlns="http://www.w3.org/2000/svg" viewBox="0 0 71 72.1"><defs><style>.cls-2{fill:#2ec3e5}.cls-3{fill:#1da7cc}.cls-4{fill:#d82356}.cls-5{fill:#ef476f}</style></defs><g id="Capa_2" data-name="Capa 2"><g id="Layer_1" data-name="Layer 1"><g id="Ring"><path style="fill:#118ab2" d="m24 10-5-6 2-4h6l2 4-5 6z"/><path class="cls-2" d="m24 10-5-6h10l-5 6z"/><path class="cls-3" d="M29 4h-7l3.5 4.2L29 4z"/><path class="cls-2" d="m19 4 2-4h6l2 4H19z"/><path class="cls-3" d="m22 4 2-4h3l2 4h-7z"/><path class="cls-4" d="M57 6.9a2.9 2.9 0 0 0-4.1 4.1l.3.3 1.7 1.7 2.1 2.1 2.1-2.1 1.3-1.3.8-.8a3 3 0 0 0 0-4.1 3 3 0 0 0-4.2.1Z"/><path class="cls-5" d="M57 6.9a2.9 2.9 0 0 0-4.1 4.1l.3.3 1.7 1.7.6.6 1.6-1.6 1.3-1.3.8-.8a2.93 2.93 0 0 0 .1-4 3.26 3.26 0 0 0-2.3 1Z"/><path class="cls-4" d="M7 62.9a3 3 0 0 0-4.1 0 3 3 0 0 0 0 4.1l.3.3L4.9 69 7 71.1 9.1 69l1.3-1.3.8-.8a2.9 2.9 0 1 0-4.2-4Z"/><path class="cls-5" d="M7 62.9a3 3 0 0 0-4.1 0 3 3 0 0 0 0 4.1l.3.3L4.9 69l.6.6L7.1 68l1.3-1.3.8-.8a2.93 2.93 0 0 0 .1-4 3.26 3.26 0 0 0-2.3 1Z"/><path d="M47 24h-.4a21.45 21.45 0 0 1 1.2 5 19.19 19.19 0 1 1-5 .5 18.88 18.88 0 0 0-1.3-4.8A23.77 23.77 0 1 0 47 24Z" style="fill:#ffd166"/><path d="M24 8a24 24 0 0 0 0 48h.4a21.45 21.45 0 0 1-1.2-5 19.19 19.19 0 1 1 5-.5 18.88 18.88 0 0 0 1.3 4.8A24 24 0 0 0 24 8Z" style="fill:#ffb229"/></g></g></g></svg>