<svg xmlns="http://www.w3.org/2000/svg" viewBox="0 0 71 72.1"><defs><style>.cls-1{fill:#118ab2;}.cls-2{fill:#2ec3e5;}.cls-3{fill:#1da7cc;}.cls-4{fill:#d82356;}.cls-5{fill:#ef476f;}.cls-6{fill:#ffd166;}.cls-7{fill:#ffb229;}</style></defs><title>Ring</title><g id="Capa_2" data-name="Capa 2"><g id="Layer_1" data-name="Layer 1"><g id="Ring"><polygon class="cls-1" points="24 10 19 4 21 0 27 0 29 4 24 10"/><polygon class="cls-2" points="24 10 19 4 29 4 24 10"/><polygon class="cls-3" points="29 4 22 4 25.5 8.2 29 4"/><polygon class="cls-2" points="19 4 21 0 27 0 29 4 19 4"/><polygon class="cls-3" points="22 4 24 0 27 0 29 4 22 4"/><path class="cls-4" d="M57,6.9A2.9,2.9,0,0,0,52.9,11l.3.3L54.9,13,57,15.1,59.1,13l1.3-1.3.8-.8a3,3,0,0,0,0-4.1A3,3,0,0,0,57,6.9Z"/><path class="cls-5" d="M57,6.9A2.9,2.9,0,0,0,52.9,11l.3.3L54.9,13l.6.6L57.1,12l1.3-1.3.8-.8a2.93,2.93,0,0,0,.1-4A3.26,3.26,0,0,0,57,6.9Z"/><path class="cls-4" d="M7,62.9a3,3,0,0,0-4.1,0,3,3,0,0,0,0,4.1l.3.3L4.9,69,7,71.1,9.1,69l1.3-1.3.8-.8a2.9,2.9,0,1,0-4.2-4Z"/><path class="cls-5" d="M7,62.9a3,3,0,0,0-4.1,0,3,3,0,0,0,0,4.1l.3.3L4.9,69l.6.6L7.1,68l1.3-1.3.8-.8a2.93,2.93,0,0,0,.1-4A3.26,3.26,0,0,0,7,62.9Z"/><path class="cls-6" d="M47,24h-.4a21.45,21.45,0,0,1,1.2,5,19.19,19.19,0,1,1-5,.5h0a18.88,18.88,0,0,0-1.3-4.8h0A23.77,23.77,0,1,0,47,24Z"/><path class="cls-7" d="M24,8a24,24,0,0,0,0,48h.4a21.45,21.45,0,0,1-1.2-5,19.19,19.19,0,1,1,5-.5h0a18.88,18.88,0,0,0,1.3,4.8h0A24,24,0,0,0,24,8Z"/></g></g></g></svg>